<svg width="28" height="28" viewBox="0 0 28 28" fill="none" xmlns="http://www.w3.org/2000/svg">
<path fill-rule="evenodd" clip-rule="evenodd" d="M10.0733 4C9.21489 4 8.49945 4.45905 8.02693 5.07962C7.55494 5.69948 7.28812 6.51758 7.28812 7.38541C7.28812 8.25322 7.55494 9.07133 8.02693 9.69118C8.49945 10.3117 9.21489 10.7708 10.0733 10.7708C10.9316 10.7708 11.647 10.3117 12.1196 9.69118C12.5916 9.07133 12.8584 8.25322 12.8584 7.38541C12.8584 6.51758 12.5916 5.69948 12.1196 5.07962C11.647 4.45905 10.9316 4 10.0733 4ZM17.261 4C16.4027 4 15.6872 4.45905 15.2147 5.07962C14.7427 5.69948 14.4759 6.51758 14.4759 7.38541C14.4759 8.25322 14.7427 9.07133 15.2147 9.69118C15.6872 10.3117 16.4027 10.7708 17.261 10.7708C18.1194 10.7708 18.8348 10.3117 19.3073 9.69118C19.7792 9.07133 20.0461 8.25322 20.0461 7.38541C20.0461 6.51758 19.7792 5.69948 19.3073 5.07962C18.8348 4.45905 18.1194 4 17.261 4ZM22.4508 10.3884C20.6881 10.3884 19.5684 12.095 19.5684 13.7738C19.5684 15.4526 20.6881 17.1592 22.4508 17.1592C24.2137 17.1592 25.3333 15.4526 25.3333 13.7738C25.3333 12.095 24.2137 10.3884 22.4508 10.3884ZM4.88249 10.3884C3.11968 10.3884 2 12.095 2 13.7738C2 15.4526 3.11968 17.1592 4.88249 17.1592C6.64529 17.1592 7.76497 15.4526 7.76497 13.7738C7.76497 12.095 6.64529 10.3884 4.88249 10.3884ZM13.6667 13.604C11.6401 13.604 10.1423 14.6907 9.1843 16.0367C8.23996 17.3635 7.76515 19.0077 7.76515 20.3444C7.76515 21.9087 8.70576 22.995 9.85368 23.6461C10.9841 24.287 12.3991 24.5684 13.6667 24.5684C14.9344 24.5684 16.3494 24.287 17.4798 23.6461C18.6277 22.995 19.5684 21.9087 19.5684 20.3444C19.5684 19.0077 19.0934 17.3635 18.1492 16.0367C17.1912 14.6907 15.6934 13.604 13.6667 13.604Z" stroke="#21262E" stroke-width="1.5"/>
</svg>
