<svg width="28" height="28" viewBox="0 0 28 28" fill="none" xmlns="http://www.w3.org/2000/svg">
<path fill-rule="evenodd" clip-rule="evenodd" d="M13.104 2H14.4589C14.9662 2.00065 15.4626 2.15418 15.8813 2.44057C16.2996 2.72672 16.6221 3.13222 16.8066 3.60424L17.4264 5.17962L19.3099 6.26698L20.9802 6.01292C21.4825 5.93713 21.9969 6.01444 22.4544 6.23503C22.9117 6.45551 23.2918 6.80867 23.5453 7.24844L24.221 8.41793C24.4752 8.85772 24.5907 9.36393 24.5526 9.87044C24.5146 10.377 24.3245 10.8602 24.0075 11.257L22.9542 12.5767V14.7573L24.0013 16.0763C24.3179 16.473 24.5084 16.9568 24.5464 17.4629C24.5846 17.9694 24.469 18.4756 24.2149 18.9155L23.5396 20.084C23.2861 20.5237 22.9053 20.8779 22.4481 21.0982C21.9906 21.319 21.4773 21.3964 20.975 21.3205L19.3037 21.0664L17.4173 22.1553L16.8009 23.7278C16.6164 24.2 16.2935 24.6065 15.8751 24.8928C15.4564 25.1792 14.9611 25.3326 14.4538 25.3333H13.1009C12.5936 25.3326 12.0972 25.1792 11.6785 24.8928C11.2599 24.6064 10.9372 24.2005 10.7527 23.728L10.1363 22.1553L8.24993 21.0664L6.57959 21.3203C6.07734 21.3962 5.5629 21.319 5.10537 21.0982C4.64821 20.8779 4.26812 20.5248 4.01465 20.0852L3.33873 18.9155C3.0846 18.4756 2.96902 17.9694 3.00711 17.4629C3.04519 16.9565 3.23507 16.4734 3.55196 16.0767L4.6055 14.7566V12.5767L3.55225 11.257C3.23536 10.8603 3.04519 10.3768 3.00711 9.87045C2.96902 9.36395 3.08459 8.85772 3.33872 8.41795L4.01401 7.24929C4.26748 6.8094 4.64804 6.45554 5.10537 6.23503C5.5629 6.01444 6.07633 5.93697 6.57859 6.01276L8.24505 6.26687L10.1368 5.17174L10.7564 3.60364C10.9411 3.13188 11.2634 2.7266 11.6816 2.44057C12.1003 2.15418 12.5967 2.00065 13.104 2ZM13.7797 17.1235C15.6888 17.1235 17.2365 15.5758 17.2365 13.6667C17.2365 11.7575 15.6888 10.2099 13.7797 10.2099C11.8706 10.2099 10.3229 11.7575 10.3229 13.6667C10.3229 15.5758 11.8706 17.1235 13.7797 17.1235Z" stroke="#FAFDFE" stroke-width="1.5"/>
</svg>
